<svg width="400" height="243" viewBox="0 0 400 243" fill="none" xmlns="http://www.w3.org/2000/svg">
<g clip-path="url(#clip0)">
<path d="M254.387 242.675C334.807 242.675 400 236.809 400 229.573C400 222.338 334.807 216.472 254.387 216.472C173.967 216.472 108.773 222.338 108.773 229.573C108.773 236.809 173.967 242.675 254.387 242.675Z" fill="#3F3D56"/>
<path opacity="0.1" d="M384.653 216.219C384.653 236.258 356.721 230.059 322.521 230.059C288.321 230.059 260.803 236.258 260.803 216.219C260.803 196.18 288.732 191.821 322.932 191.821C357.132 191.821 384.653 196.18 384.653 216.219Z" fill="black"/>
<path d="M384.653 212.476C384.653 232.515 356.721 226.316 322.521 226.316C288.321 226.316 260.803 232.515 260.803 212.476C260.803 192.436 288.732 188.078 322.932 188.078C357.132 188.078 384.653 192.436 384.653 212.476Z" fill="#3F3D56"/>
<path d="M267.889 149.697L266.623 151.167C266.623 151.167 251.234 152.612 251.859 155.11C252.483 157.608 270.387 151.779 270.387 151.779L267.889 149.697Z" fill="#FFC1C7"/>
<path d="M295.786 148.448C295.786 148.448 279.339 154.277 270.387 151.779L274.551 160.106C274.551 160.106 295.786 159.482 299.533 155.734C303.281 151.987 295.786 148.448 295.786 148.448Z" fill="#6C63FF"/>
<path opacity="0.1" d="M295.786 148.448C295.786 148.448 279.339 154.277 270.387 151.779L274.551 160.106C274.551 160.106 295.786 159.482 299.533 155.734C303.281 151.987 295.786 148.448 295.786 148.448Z" fill="black"/>
<path d="M284.648 103.792C290.742 103.792 295.682 98.8522 295.682 92.7584C295.682 86.6646 290.742 81.7246 284.648 81.7246C278.554 81.7246 273.614 86.6646 273.614 92.7584C273.614 98.8522 278.554 103.792 284.648 103.792Z" fill="#FFC1C7"/>
<path d="M294.056 103.117C294.436 103.842 294.918 104.509 295.486 105.099C296.997 106.743 298.801 108.092 300.804 109.078C294.542 110.351 288.216 111.292 281.854 111.896C282.526 109.531 281.642 107.001 280.454 104.848C279.265 102.695 277.751 100.689 277.007 98.3452L284.465 98.5456C285.818 98.582 287.176 98.6225 288.528 98.5563C289.54 98.5068 291.224 97.901 292.168 98.1241C294.163 98.5958 293.185 101.347 294.056 103.117Z" fill="#FFC1C7"/>
<path d="M319.103 154.902L325.348 162.396C325.348 162.396 335.757 186.754 313.065 189.252C290.373 191.75 273.51 187.378 273.51 187.378C273.51 187.378 264.35 183.007 264.142 186.338C263.934 189.669 263.101 199.037 258.104 208.197L253.732 218.19C253.732 218.19 251.442 220.48 252.067 223.603C252.692 226.726 238.119 227.766 238.327 223.603C238.327 223.603 240.409 220.064 240.409 217.982C240.409 215.9 243.74 210.903 243.74 210.903L249.777 180.925C249.777 180.925 249.361 165.519 263.517 168.434C277.674 171.348 297.868 167.809 297.868 167.809L302.448 151.779L319.103 154.902Z" fill="#2F2E41"/>
<path opacity="0.1" d="M319.103 154.902L325.348 162.396C325.348 162.396 335.757 186.754 313.065 189.252C290.373 191.75 273.51 187.378 273.51 187.378C273.51 187.378 264.35 183.007 264.142 186.338C263.934 189.669 263.101 199.037 258.104 208.197L253.732 218.19C253.732 218.19 251.442 220.48 252.067 223.603C252.692 226.726 238.119 227.766 238.327 223.603C238.327 223.603 240.409 220.064 240.409 217.982C240.409 215.9 243.74 210.903 243.74 210.903L249.777 180.925C249.777 180.925 249.361 165.519 263.517 168.434C277.674 171.348 297.868 167.809 297.868 167.809L302.448 151.779L319.103 154.902Z" fill="black"/>
<path d="M295.682 154.353C295.682 154.353 314.731 147.199 325.348 162.396C325.348 162.396 328.055 185.921 317.229 186.962C306.403 188.003 292.247 187.795 288.916 184.256C285.585 180.717 264.558 170.724 264.558 170.724C264.558 170.724 254.091 165.385 252.038 172.322C249.985 179.259 249.777 180.925 249.777 180.925C249.777 180.925 238.951 188.836 234.579 190.293C234.579 190.293 231.665 194.457 229.999 194.457C228.334 194.457 218.133 196.747 219.174 189.044L236.037 173.638L252.9 157.192C252.9 157.192 257.688 150.114 269.971 153.861C278.123 156.287 286.391 158.302 294.745 159.898L295.682 154.353Z" fill="#2F2E41"/>
<path d="M251.442 223.186C251.442 223.186 255.398 233.179 252.067 234.429C248.736 235.678 241.658 234.845 241.658 234.845C241.658 234.845 233.33 233.804 231.248 234.012C229.167 234.22 220.631 232.555 221.88 229.224C223.129 225.893 229.583 226.726 229.583 226.726L235.412 224.019C235.412 224.019 236.037 221.937 237.494 222.77C238.951 223.603 243.115 226.726 251.442 223.186Z" fill="#CBCEDA"/>
<path d="M229.791 193.624C229.791 193.624 234.163 203.409 227.085 202.576C220.006 201.743 214.594 200.286 212.512 200.078C210.509 199.878 204.847 197.944 205.715 194.091C205.762 193.842 205.781 193.588 205.772 193.335C205.772 192.817 206.474 191.802 212.095 191.959C212.095 191.959 216.259 191.959 217.925 189.044C217.925 189.044 224.17 196.955 229.791 193.624Z" fill="#CBCEDA"/>
<path d="M277.049 110.35C277.049 110.35 292.039 100.982 304.53 110.35C317.021 119.719 325.348 162.397 325.348 162.397L296.41 155.943C296.41 155.943 295.161 150.946 293.496 150.114C291.83 149.281 291.622 145.742 291.622 145.742C291.622 145.742 282.67 143.035 283.295 132.626C283.919 122.217 277.049 110.35 277.049 110.35Z" fill="#6C63FF"/>
<path d="M284.752 110.766H277.049C277.049 110.766 272.469 115.971 271.845 129.087L269.346 139.496C269.346 139.496 264.142 151.987 267.264 154.069C270.387 156.151 276.425 155.943 277.674 151.779C278.923 147.615 287.458 123.466 287.458 123.466L284.752 110.766Z" fill="#6C63FF"/>
<path d="M282.544 78.3989C284.454 77.6158 286.544 77.3779 288.581 77.7119C290.618 78.0459 292.522 78.9385 294.082 80.2905C298.08 83.8586 298.887 89.6793 299.897 94.942C300.908 100.205 302.941 106.065 307.901 108.094C305.666 108.393 303.396 108.327 301.182 107.898L308.677 114.615L296.051 110.5C292.088 109.208 287.926 107.9 283.823 108.63C277.025 109.838 272.292 116.229 265.762 118.474L266.488 114.934L262.107 114.9C263.157 114.123 264.015 113.118 264.617 111.959C264.411 111.709 264.156 111.502 263.868 111.351C263.58 111.201 263.265 111.109 262.941 111.083C261.115 99.6924 267.879 88.4331 276.694 80.9915C278.427 79.5278 280.346 78.1219 282.585 77.7558C284.824 77.3897 287.438 78.391 288.217 80.5222" fill="#2F2E41"/>
<path d="M132.81 150.489C132.751 150.393 131.364 148.077 130.883 143.266C130.442 138.853 130.725 131.413 134.584 121.036C141.893 101.377 132.899 85.5157 132.807 85.3577L133.251 85.1003C133.274 85.1404 135.595 89.1845 136.966 95.6242C138.777 104.162 138.118 113.039 135.064 121.215C127.768 140.84 133.192 150.131 133.248 150.222L132.81 150.489Z" fill="#3F3D56"/>
<path d="M129.952 84.2034C131.793 84.2034 133.285 82.711 133.285 80.8701C133.285 79.0292 131.793 77.5369 129.952 77.5369C128.111 77.5369 126.619 79.0292 126.619 80.8701C126.619 82.711 128.111 84.2034 129.952 84.2034Z" fill="#6C63FF"/>
<path d="M140.465 96.5107C142.306 96.5107 143.798 95.0184 143.798 93.1775C143.798 91.3366 142.306 89.8442 140.465 89.8442C138.624 89.8442 137.132 91.3366 137.132 93.1775C137.132 95.0184 138.624 96.5107 140.465 96.5107Z" fill="#3F3D56"/>
<path d="M133.285 104.716C135.126 104.716 136.619 103.223 136.619 101.383C136.619 99.5417 135.126 98.0493 133.285 98.0493C131.445 98.0493 129.952 99.5417 129.952 101.383C129.952 103.223 131.445 104.716 133.285 104.716Z" fill="#6C63FF"/>
<path d="M142.003 111.639C143.844 111.639 145.336 110.146 145.336 108.305C145.336 106.465 143.844 104.972 142.003 104.972C140.162 104.972 138.67 106.465 138.67 108.305C138.67 110.146 140.162 111.639 142.003 111.639Z" fill="#6C63FF"/>
<path d="M130.721 122.408C132.562 122.408 134.055 120.915 134.055 119.074C134.055 117.234 132.562 115.741 130.721 115.741C128.881 115.741 127.388 117.234 127.388 119.074C127.388 120.915 128.881 122.408 130.721 122.408Z" fill="#3F3D56"/>
<path d="M203.027 98.3057C203.028 103.759 201.491 109.102 198.591 113.72C195.691 118.338 191.547 122.044 186.635 124.413C186.633 124.413 186.633 124.413 186.63 124.415C185.75 124.841 184.848 125.22 183.928 125.551C183.782 125.608 183.633 125.659 183.482 125.708C183.174 125.818 182.861 125.918 182.546 126.013C181.897 126.213 181.239 126.39 180.571 126.543H180.569L180.551 126.549L180.51 126.556C180.423 126.577 180.333 126.597 180.243 126.615C179.746 126.725 179.243 126.82 178.736 126.9C177.188 127.154 175.622 127.281 174.054 127.279C173.213 127.279 172.377 127.243 171.554 127.172C171.509 127.17 171.465 127.166 171.42 127.159C169.164 126.955 166.938 126.487 164.79 125.767C164.472 125.659 164.154 125.546 163.841 125.426C158.893 123.562 154.549 120.381 151.28 116.226C148.01 112.071 145.94 107.1 145.293 101.853C144.646 96.6054 145.447 91.2809 147.61 86.4562C149.773 81.6315 153.214 77.4905 157.562 74.4816C161.909 71.4728 166.997 69.7108 172.274 69.3866C177.552 69.0623 182.817 70.1882 187.5 72.6422C192.183 75.0962 196.106 78.7848 198.843 83.3085C201.58 87.8322 203.027 93.0185 203.027 98.3057Z" fill="#3F3D56"/>
<path d="M170.611 98.6308C170.611 98.6308 177.407 95.6696 180.599 98.7977C183.791 101.926 172.053 100.896 170.611 98.6308Z" fill="#3F3D56"/>
<path d="M182.346 84.5874C180.062 80.7286 175.544 80.5487 175.544 80.5487C175.544 80.5487 171.141 79.9857 168.317 85.8627C165.684 91.3406 162.051 96.6296 167.732 97.9119L168.758 94.7182L169.393 98.1497C170.202 98.2079 171.014 98.2217 171.824 98.1912C177.907 97.9948 183.701 98.2487 183.515 96.0657C183.267 93.1636 184.543 88.3003 182.346 84.5874Z" fill="#2F2E41"/>
<path d="M171.744 92.9675C171.744 92.9675 172.773 99.7633 170.714 100.587C168.655 101.411 174.833 104.912 174.833 104.912H178.334L180.599 100.175C180.599 100.175 178.54 96.4684 179.775 92.9675C181.011 89.4667 171.744 92.9675 171.744 92.9675Z" fill="#A0616A"/>
<path d="M183.482 125.708V101.616C183.482 101.616 183.22 99.1416 181.146 99.7852C180.934 99.8529 180.728 99.9387 180.53 100.042C180.187 100.227 179.859 100.441 179.551 100.68C179.433 100.77 179.313 100.867 179.187 100.972C179.177 100.98 179.166 100.99 179.156 100.998C175.243 104.293 173.392 102.029 172.979 101.616C172.828 101.467 172.433 101.044 171.99 100.567V100.565C171.797 100.359 171.597 100.144 171.408 99.9339C170.82 99.3005 170.303 98.7339 170.303 98.7339L168.244 100.38L168.746 112.862L168.864 115.805V115.808L168.903 116.723V116.728L169.223 124.713L169.272 125.918C169.969 126.139 170.677 126.326 171.392 126.477C171.602 126.52 171.826 126.564 172.054 126.605C173.838 126.928 176.084 127.095 177.51 126.328C177.798 126.174 178.1 126.047 178.413 125.951C179.033 125.765 179.678 125.676 180.325 125.687C180.464 125.69 180.6 125.695 180.736 125.702H180.738C181.349 125.746 181.955 125.85 182.546 126.013L183.482 125.708Z" fill="#3F3D56"/>
<path d="M173.605 124.949C173.139 125.546 172.62 126.101 172.054 126.605C171.879 126.764 171.705 126.918 171.528 127.069C171.492 127.1 171.456 127.128 171.42 127.159C169.164 126.955 166.938 126.487 164.79 125.767C164.472 125.659 164.154 125.546 163.841 125.426C164.039 124.924 164.194 124.407 164.305 123.879C165.723 117.233 161.6 107.146 161.241 105.529C161.11 104.947 161.592 104.139 162.364 103.28C164.049 101.411 167.113 99.298 168.244 98.7339C169.101 98.3503 170.061 98.2619 170.974 98.4826H170.977C171.263 98.5413 171.544 98.6254 171.815 98.7339V98.7365C171.818 98.7749 171.846 99.0672 171.895 99.5672C171.92 99.8415 171.951 100.175 171.99 100.565V100.567C172.059 101.295 172.146 102.203 172.249 103.239V103.241C172.867 109.623 173.984 120.731 174.42 122.62C174.582 123.32 174.223 124.131 173.605 124.949Z" fill="#D0CDE1"/>
<path d="M183.482 125.708C183.633 125.659 183.782 125.608 183.928 125.551C184.848 125.22 185.75 124.841 186.63 124.415C185.312 120.564 189.207 108.321 190.323 104.531V104.526C190.453 104.082 190.546 103.754 190.587 103.572C190.999 101.718 184.718 99.9698 184.512 99.5569C184.353 99.2441 181.802 98.9288 180.6 98.798C180.228 98.757 179.984 98.7339 179.984 98.7339C179.666 98.98 179.423 99.6877 179.233 100.716C179.215 100.798 179.2 100.885 179.187 100.972C179.051 101.767 178.946 102.729 178.861 103.808C178.395 109.695 178.554 118.998 178.128 122.828C178.042 123.619 178.077 124.419 178.233 125.2C178.28 125.453 178.34 125.704 178.413 125.951C178.502 126.273 178.61 126.59 178.736 126.9C179.243 126.82 179.746 126.726 180.243 126.615C180.333 126.597 180.423 126.577 180.51 126.556L180.551 126.549L180.569 126.543H180.572C181.238 126.39 181.896 126.213 182.546 126.013L183.482 125.708Z" fill="#D0CDE1"/>
<path d="M181.937 91.0112C182.165 91.0112 182.349 90.6424 182.349 90.1875C182.349 89.7326 182.165 89.3638 181.937 89.3638C181.71 89.3638 181.526 89.7326 181.526 90.1875C181.526 90.6424 181.71 91.0112 181.937 91.0112Z" fill="#A0616A"/>
<path d="M169.787 91.0112C170.015 91.0112 170.199 90.6424 170.199 90.1875C170.199 89.7326 170.015 89.3638 169.787 89.3638C169.56 89.3638 169.376 89.7326 169.376 90.1875C169.376 90.6424 169.56 91.0112 169.787 91.0112Z" fill="#A0616A"/>
<path d="M183.482 125.707C183.633 125.659 183.782 125.607 183.928 125.551C184.848 125.22 185.75 124.84 186.63 124.415C186.63 124.417 186.63 124.418 186.631 124.419C186.631 124.421 186.632 124.422 186.633 124.423C186.633 124.419 186.633 124.416 186.635 124.413C188.174 116.29 189.805 107.6 190.323 104.531V104.526C190.412 103.993 190.469 103.631 190.484 103.47C190.689 101.411 185.541 101.411 185.541 101.411L184.72 105.557L183.482 111.821L183.056 113.972L180.807 125.338L180.736 125.702L180.569 126.543H180.572C181.238 126.39 181.896 126.213 182.546 126.013L183.482 125.707Z" fill="#D0CDE1"/>
<path d="M171.42 127.159C169.164 126.955 166.938 126.487 164.79 125.766C164.628 125.143 164.467 124.513 164.305 123.879C162.303 116.021 160.418 107.705 160.418 106.146C160.418 104.857 161.318 103.926 162.364 103.28C163.36 102.698 164.44 102.276 165.567 102.029C165.567 102.029 166.223 104.759 167.167 108.698C167.672 110.8 168.256 113.246 168.864 115.805V115.808C169.572 118.777 170.313 121.895 171 124.807C171.11 125.279 171.22 125.744 171.328 126.202V126.213C171.33 126.216 171.331 126.219 171.331 126.223C171.351 126.307 171.372 126.392 171.392 126.477C171.438 126.677 171.485 126.874 171.528 127.069C171.538 127.102 171.546 127.136 171.554 127.172C171.509 127.17 171.465 127.166 171.42 127.159Z" fill="#D0CDE1"/>
<path opacity="0.2" d="M166.699 108.104L171.332 126.224C171.332 126.224 169.17 110.369 166.699 108.104Z" fill="black"/>
<path opacity="0.2" d="M184.72 105.557L183.482 111.821L183.056 113.972L180.81 125.338H180.807L180.738 125.703H180.736L180.571 126.544H180.569L180.551 126.549L180.51 126.556L180.243 126.608C180.266 126.32 180.295 126.013 180.325 125.687C180.336 125.567 180.346 125.444 180.359 125.315C180.841 120.077 181.869 111.029 183.482 107.239C183.861 106.347 184.274 105.747 184.72 105.557Z" fill="black"/>
<path d="M175.862 96.2626C179.161 96.2626 181.834 93.5888 181.834 90.2906C181.834 86.9924 179.161 84.3186 175.862 84.3186C172.564 84.3186 169.89 86.9924 169.89 90.2906C169.89 93.5888 172.564 96.2626 175.862 96.2626Z" fill="#A0616A"/>
<path d="M181.336 84.2151L176.872 81.877L170.708 82.8333L169.433 88.4663L172.607 88.3442L173.494 86.2748V88.3101L174.959 88.2537L175.809 84.9589L176.341 88.4663L181.548 88.3601L181.336 84.2151Z" fill="#2F2E41"/>
<path d="M129.952 61.6399C129.952 66.2399 128.857 70.7738 126.757 74.8664C124.657 78.959 121.612 82.4928 117.876 85.1752C116.855 85.9117 115.787 86.5798 114.678 87.1752C108.605 90.4261 101.574 91.413 94.8403 89.9597C93.4066 89.6521 91.999 89.2338 90.6301 88.7085C85.6972 86.8229 81.3733 83.625 78.1259 79.4604C74.8785 75.2958 72.8309 70.3229 72.2045 65.0791C71.5782 59.8354 72.3968 54.5201 74.5719 49.7078C76.7471 44.8955 80.196 40.7691 84.5461 37.7747C88.8961 34.7802 93.9818 33.0315 99.2535 32.7175C104.525 32.4036 109.782 33.5363 114.457 35.9933C119.132 38.4503 123.046 42.1381 125.777 46.6582C128.508 51.1783 129.952 56.3589 129.952 61.6399Z" fill="#3F3D56"/>
<path d="M99.1512 59.7506C102.831 59.7506 105.815 56.7672 105.815 53.0869C105.815 49.4067 102.831 46.4233 99.1512 46.4233C95.471 46.4233 92.4876 49.4067 92.4876 53.0869C92.4876 56.7672 95.471 59.7506 99.1512 59.7506Z" fill="#FFB8B8"/>
<path d="M96.5482 58.1886C96.5482 58.1886 97.3812 62.1451 97.3812 62.5616C97.3812 62.978 101.338 64.8522 101.338 64.8522L104.878 64.2275L106.127 60.4792C106.127 60.4792 104.045 57.3556 104.045 56.1062L96.5482 58.1886Z" fill="#FFB8B8"/>
<path d="M100.979 90.6136C98.915 90.6147 96.8573 90.3955 94.8403 89.9597C94.7403 87.9213 94.6736 85.6752 94.6736 85.6752L92.6429 79.783L88.4276 67.5603L97.1069 60.9348C97.1069 60.9348 99.2555 64.4347 102.379 63.3937C103.247 63.1301 104.01 62.599 104.559 61.8761C105.108 61.1533 105.414 60.2755 105.435 59.3682L115.706 62.9783L113.932 77.3754L113.832 78.1805L114.678 87.1752C110.467 89.4395 105.76 90.6211 100.979 90.6136Z" fill="#D0CDE1"/>
<path d="M93.3725 47.7183C93.3725 47.7183 95.4882 43.1343 99.5432 44.1922C103.598 45.25 105.89 46.8368 106.067 48.4235C106.243 50.0103 105.978 52.3904 105.978 52.3904C105.978 52.3904 105.538 49.1287 102.717 49.834C99.8958 50.5392 95.4882 50.0103 95.4882 50.0103L94.783 56.3573C94.783 56.3573 93.9896 55.2113 93.1081 55.9165C92.2266 56.6218 90.5516 49.1287 93.3725 47.7183Z" fill="#2F2E41"/>
<path d="M84.8202 85.5085L86.1612 74.201C85.9535 69.8268 88.6611 67.5371 88.6611 67.5371H91.7841L94.0738 75.2421L92.8764 79.7599L91.3688 85.4444L90.9508 86.07C90.9508 86.07 91.3688 86.6931 91.1585 86.9033C90.9508 87.111 90.7431 87.9443 90.7431 87.9443C90.7431 87.9443 90.7867 88.2417 90.8636 88.6853C88.73 87.8705 86.7012 86.804 84.8202 85.5085Z" fill="#D0CDE1"/>
<path d="M122.996 80.4726C121.484 82.2402 119.765 83.8191 117.876 85.1751C117.591 84.6701 117.353 84.1407 117.163 83.593L113.932 77.3752L111.75 73.1805L112.165 62.3525L115.706 62.9782C115.706 62.9782 117.788 65.0602 118.622 67.5601L120.288 75.0548L122.993 80.47L122.996 80.4726Z" fill="#D0CDE1"/>
<path d="M271.487 44.9736C271.49 49.9478 270.211 54.8387 267.773 59.1748C265.336 63.5109 261.823 67.146 257.572 69.7295C257.059 70.0423 256.536 70.3371 256.003 70.6192C255.208 71.0397 254.39 71.4243 253.554 71.7653V71.7679C253.288 71.8781 253.021 71.9832 252.752 72.0832C252.626 72.132 252.498 72.1807 252.37 72.2268C249.209 73.3662 245.874 73.9483 242.514 73.9473C240.307 73.9489 238.107 73.6995 235.957 73.2037C234.841 72.9452 233.74 72.6198 232.663 72.2294H232.66C231.292 71.7339 229.963 71.1356 228.686 70.4397C228.352 70.2602 228.024 70.073 227.701 69.8782C227.475 69.7448 227.255 69.6089 227.034 69.4705C222.776 66.7798 219.293 63.0256 216.928 58.578C214.563 54.1305 213.399 49.1433 213.55 44.1084C213.7 39.0735 215.161 34.1649 217.787 29.8667C220.414 25.5686 224.116 22.0293 228.527 19.5982C232.939 17.1671 237.908 15.928 242.945 16.0032C247.981 16.0785 252.911 17.4654 257.248 20.0272C261.585 22.5889 265.18 26.2371 267.677 30.6118C270.173 34.9865 271.487 39.9365 271.487 44.9736Z" fill="#3F3D56"/>
<path d="M239.174 40.7439C239.174 40.7439 239.345 45.2032 238.316 46.2323C237.287 47.2613 243.462 50.8631 243.462 50.8631L247.063 45.2032C247.063 45.2032 245.691 42.802 246.034 40.7439L239.174 40.7439Z" fill="#A0616A"/>
<path d="M242.175 43.2309C245.585 43.2309 248.35 40.4665 248.35 37.0565C248.35 33.6465 245.585 30.8821 242.175 30.8821C238.765 30.8821 236.001 33.6465 236.001 37.0565C236.001 40.4665 238.765 43.2309 242.175 43.2309Z" fill="#A0616A"/>
<path d="M252.639 70.6524C252.677 71.1294 252.715 71.6063 252.752 72.0832C252.626 72.1319 252.498 72.1806 252.37 72.2268C249.209 73.3661 245.874 73.9482 242.514 73.9472C240.307 73.9489 238.107 73.6994 235.957 73.2037C234.841 72.9451 233.74 72.6197 232.663 72.2293L232.66 72.2524C232.657 72.2449 232.657 72.2368 232.66 72.2293C232.699 71.7063 232.797 71.1894 232.952 70.6883V70.6858C233.096 70.1576 233.291 69.5473 233.514 68.873C233.755 68.1525 233.77 66.5782 233.719 65.0987C233.714 64.9859 233.711 64.8705 233.706 64.7603C233.686 64.2808 233.66 63.8218 233.634 63.4142C233.575 62.4937 233.514 61.8398 233.514 61.8398L229.74 51.7196L238.855 45.0633C239.393 46.8094 240.547 46.7479 240.547 46.7479C245.439 47.0838 246.339 43.7044 246.367 43.5941V43.5916L255.124 49.3196L251.524 58.0656C251.524 58.0656 251.67 59.5476 251.877 61.8091C251.908 62.1424 251.939 62.4937 251.975 62.8603C252.175 65.0808 252.418 67.8474 252.639 70.6524Z" fill="#D0CDE1"/>
<path d="M233.942 63.4682L233.763 64.7707L233.719 65.0989L232.957 70.6629L232.952 70.686V70.6885L232.663 72.2295L232.66 72.2526C232.657 72.2451 232.657 72.237 232.66 72.2295C231.292 71.734 229.963 71.1357 228.686 70.4398C228.352 70.2603 228.024 70.0732 227.701 69.8783C227.914 69.2146 228.166 68.5639 228.455 67.9296L228.978 63.8579L229.14 62.6118L233.634 63.4144L233.942 63.4682Z" fill="#A0616A"/>
<path d="M232.228 51.4634L229.741 51.7206C229.741 51.7206 228.111 63.8122 228.626 63.8122C229.14 63.8122 234.972 65.1843 235.143 64.8413C235.315 64.4982 232.228 51.4634 232.228 51.4634Z" fill="#D0CDE1"/>
<path d="M237.411 30.7274L236.298 30.3227C236.298 30.3227 238.625 27.9954 241.863 28.1978L240.953 27.2871C240.953 27.2871 243.179 26.4776 245.202 28.6025C246.266 29.7195 247.497 31.0325 248.264 32.5115H249.456L248.959 33.5065L250.7 34.5015L248.913 34.3228C249.082 35.1818 249.024 36.0702 248.744 36.8997L248.339 38.0127C248.339 38.0127 246.72 34.7748 246.72 34.3701V35.3819C246.72 35.3819 245.607 34.4713 245.607 33.8641L245 34.5724L244.697 33.4594L240.953 34.5724L241.56 33.6618L239.233 33.9653L240.143 32.8523C240.143 32.8523 237.512 34.1677 237.411 35.2807C237.31 36.3938 235.995 37.8103 235.995 37.8103L235.388 36.7985C235.388 36.7985 234.477 32.2452 237.411 30.7274Z" fill="#2F2E41"/>
<path d="M257.572 69.7295C257.059 70.0423 256.536 70.3372 256.003 70.6192C255.208 71.0397 254.39 71.4243 253.554 71.7654V71.7679C253.288 71.8782 253.021 71.9833 252.752 72.0833C252.626 72.132 252.498 72.1807 252.37 72.2269L252.639 70.6526L251.418 62.8964L251.265 61.9246L251.877 61.8092L257.611 60.7246V67.7578C257.611 67.7578 257.626 68.5193 257.572 69.7295Z" fill="#A0616A"/>
<path d="M251.78 48.8909L255.124 49.3196C255.124 49.3196 259.155 61.5827 258.126 62.0972C257.097 62.6118 250.408 62.9548 250.408 62.9548L251.78 48.8909Z" fill="#D0CDE1"/>
<path d="M119.696 48.0506C124.369 48.0506 128.157 44.2623 128.157 39.5893C128.157 34.9162 124.369 31.1279 119.696 31.1279C115.023 31.1279 111.235 34.9162 111.235 39.5893C111.235 44.2623 115.023 48.0506 119.696 48.0506Z" fill="#6C63FF"/>
<path d="M194.053 85.2291C198.726 85.2291 202.515 81.4408 202.515 76.7677C202.515 72.0947 198.726 68.3064 194.053 68.3064C189.38 68.3064 185.592 72.0947 185.592 76.7677C185.592 81.4408 189.38 85.2291 194.053 85.2291Z" fill="#6C63FF"/>
<path d="M263.539 32.9227C268.212 32.9227 272 29.1344 272 24.4613C272 19.7883 268.212 16 263.539 16C258.866 16 255.077 19.7883 255.077 24.4613C255.077 29.1344 258.866 32.9227 263.539 32.9227Z" fill="#6C63FF"/>
</g>
<defs>
<clipPath id="clip0">
<rect width="400" height="242.675" fill="white"/>
</clipPath>
</defs>
</svg>
